<?xml version="1.0" standalone="no"?>
<!DOCTYPE svg PUBLIC "-//W3C//DTD SVG 20010904//EN"
 "http://www.w3.org/TR/2001/REC-SVG-20010904/DTD/svg10.dtd">
<svg version="1.0" xmlns="http://www.w3.org/2000/svg"
 width="700.000000pt" height="449.000000pt" viewBox="0 0 700.000000 449.000000"
 preserveAspectRatio="xMidYMid meet">

<g transform="translate(0.000000,449.000000) scale(0.100000,-0.100000)"
fill="#ffffff" stroke="none">
<path d="M130 4150 l0 -340 -27 -2 c-16 0 -40 -2 -55 -2 -15 -1 -29 -4 -32 -6
-2 -3 22 -38 54 -79 33 -40 65 -82 72 -93 11 -16 12 17 9 199 -2 180 0 223 12
248 14 28 57 196 75 295 9 50 35 67 45 28 4 -13 2 -78 -4 -145 -6 -68 -9 -129
-6 -137 5 -12 13 -13 42 -5 20 6 50 9 68 7 26 -3 33 -9 41 -38 6 -19 19 -42
30 -51 16 -13 17 -20 9 -45 -6 -17 -16 -28 -25 -26 -17 3 -58 -74 -58 -110 0
-33 -54 -139 -91 -179 -16 -17 -29 -36 -29 -41 0 -5 -6 -8 -12 -6 -18 6 -46
-23 -50 -51 -3 -23 -4 -24 -20 -8 -16 17 -18 16 -28 -2 -5 -11 -10 -26 -10
-34 0 -8 -6 -20 -14 -26 -37 -31 -23 -116 49 -291 20 -48 29 -99 50 -289 3
-30 0 -52 -13 -73 -17 -29 -16 -30 5 -48 13 -10 23 -25 23 -34 0 -18 -15 -21
-25 -6 -3 6 -14 10 -24 10 -19 0 -112 43 -153 72 -14 10 -29 18 -32 18 -3 0
-6 -139 -6 -310 l0 -309 62 -3 63 -3 3 -329 c2 -260 0 -331 -10 -338 -7 -4
-37 -8 -66 -8 l-52 0 27 -32 c16 -18 38 -43 51 -56 l23 -24 -24 -31 c-13 -18
-36 -55 -51 -83 l-28 -52 5 -233 c3 -152 9 -249 18 -276 11 -37 11 -44 -4 -61
-9 -10 -17 -24 -17 -30 0 -17 47 -45 65 -39 17 7 20 3 30 -41 8 -39 -2 -41
-55 -7 l-40 25 0 -311 0 -311 853 4 c762 3 855 5 882 20 40 21 132 16 150 -8
21 -29 32 -8 40 73 4 43 13 85 20 93 8 9 26 42 41 74 25 56 26 63 18 145 -15
144 -8 371 17 539 21 143 21 159 8 255 -15 109 -17 320 -5 478 l8 96 73 2 c42
1 76 -3 80 -9 10 -17 151 -13 169 5 12 13 74 19 327 31 215 10 316 11 323 4
16 -16 172 -13 188 4 9 8 43 15 89 17 l74 4 3 -913 2 -913 516 1 c284 1 522 4
529 6 12 5 12 31 -1 104 -6 38 -43 110 -56 110 -4 0 -9 -33 -9 -72 -1 -40 -4
-86 -8 -103 -7 -30 -7 -29 -23 20 -9 28 -20 66 -23 85 -4 19 -22 51 -39 70
-53 57 -76 96 -77 132 -1 48 -11 69 -28 59 -22 -14 -41 -2 -41 25 0 20 9 29
46 44 77 33 105 27 218 -47 152 -100 174 -120 216 -196 33 -60 40 -81 40 -129
0 -74 -16 -84 -22 -14 -3 38 -14 71 -38 110 -19 30 -36 54 -38 51 -2 -2 5 -29
17 -60 14 -37 21 -79 21 -126 l0 -71 328 6 c180 3 343 10 362 16 48 14 100 13
100 -2 0 -6 7 -3 15 8 13 17 14 17 15 2 0 -20 19 -34 30 -22 5 5 13 93 19 195
10 184 11 188 42 237 28 46 30 55 25 109 -16 155 -17 268 -1 589 9 191 18 350
20 354 2 3 5 60 6 126 1 65 6 127 11 137 7 14 22 17 78 17 40 0 70 -4 70 -10
0 -17 156 -12 174 5 12 13 74 19 327 31 215 10 316 11 323 4 16 -16 183 -13
193 4 5 9 33 15 83 17 l75 4 3 -912 2 -913 70 0 70 0 -2 192 c-3 174 -5 193
-20 196 -11 2 -18 -3 -18 -12 0 -19 -14 -21 -28 -3 -6 7 -13 171 -17 437 l-8
425 47 -3 c46 -4 46 -4 46 28 0 30 -2 32 -27 25 -16 -3 -36 -14 -46 -22 -16
-15 -17 -9 -17 125 0 78 4 142 8 142 5 0 7 -25 4 -55 -2 -30 -1 -66 2 -80 8
-30 40 -65 61 -65 22 0 18 33 -5 48 -12 7 -18 17 -15 21 3 5 -1 11 -7 14 -10
3 -11 9 0 26 6 11 12 35 12 53 0 18 7 42 15 52 23 30 22 1074 0 1082 -8 4 -15
15 -15 25 0 10 -4 19 -10 19 -5 0 -7 -13 -3 -31 5 -29 5 -30 -14 -19 -19 12
-20 28 -27 314 -4 166 -6 433 -6 595 1 268 2 293 17 278 13 -12 14 -21 4 -48
-14 -40 -14 -114 -1 -140 6 -10 24 -26 40 -34 29 -15 30 -15 30 10 0 14 -4 25
-10 25 -5 0 -17 11 -26 25 -13 20 -15 31 -6 48 35 71 42 146 42 473 l0 324
-900 0 c-599 0 -900 -3 -900 -10 0 -6 18 -23 40 -38 31 -22 39 -33 40 -59 0
-22 9 -38 31 -57 17 -14 35 -26 40 -26 5 0 9 -6 9 -14 0 -7 10 -17 23 -21 19
-7 16 -9 -18 -14 -34 -5 -40 -10 -42 -31 0 -14 -1 -31 -2 -37 -1 -7 -8 -13
-17 -13 -13 0 -14 -3 -4 -15 21 -25 -6 -114 -44 -147 -30 -26 -31 -27 -11 -42
11 -8 17 -16 12 -16 -4 0 -31 20 -61 44 -30 24 -59 45 -64 47 -6 2 -13 26 -17
53 -3 28 -8 52 -10 54 -5 6 -25 -44 -25 -64 0 -18 -13 -18 -97 2 -52 12 -99
15 -203 11 -74 -3 -145 -9 -156 -12 l-22 -7 6 206 5 206 -317 0 c-280 -1 -316
-3 -316 -17 0 -11 8 -14 32 -11 45 7 64 -17 71 -91 l5 -61 -51 6 c-29 4 -57
11 -64 18 -12 11 -43 108 -43 134 0 12 3 12 15 2 12 -10 15 -10 15 4 0 14 -19
16 -165 16 l-165 0 0 -334 c0 -236 -3 -337 -11 -342 -6 -4 -31 -7 -55 -8 -24
-2 -44 -7 -44 -12 -1 -9 5 -17 101 -133 l52 -64 21 44 c19 39 25 44 59 47 20
2 37 0 37 -4 0 -4 -15 -39 -34 -78 -91 -192 -120 -402 -91 -653 10 -83 15
-159 12 -167 -5 -12 -14 -11 -59 11 -29 14 -65 34 -80 44 -41 30 -51 25 -45
-23 4 -24 3 -79 -2 -123 -6 -62 -9 -70 -10 -35 -3 46 -5 46 -15 -2 -4 -16 -13
-28 -21 -28 -8 0 -16 -6 -17 -12 -1 -7 -4 21 -8 62 -4 41 -7 296 -7 565 1 270
2 463 4 430 4 -55 6 -62 37 -82 51 -33 65 -6 21 41 -25 28 -33 56 -15 56 6 0
10 15 11 33 0 27 2 29 9 12 8 -17 9 -16 10 10 0 17 3 191 6 388 l6 357 -896 0
c-739 0 -896 -2 -896 -13 0 -8 11 -20 25 -27 14 -7 25 -19 25 -27 0 -7 5 -13
11 -13 7 0 9 -9 5 -23 -4 -19 2 -30 32 -54 20 -16 45 -32 55 -36 22 -8 22 -28
-1 -34 -19 -5 -65 -94 -67 -132 0 -13 7 -28 17 -35 10 -6 18 -14 18 -19 0 -4
-4 -5 -10 -2 -6 4 -11 -6 -11 -22 -1 -20 -3 -22 -6 -8 -2 11 -14 25 -26 30
-12 6 -35 37 -52 70 -28 54 -36 62 -104 96 -48 25 -93 40 -130 44 -31 3 -92
17 -136 32 -51 17 -109 28 -162 31 l-83 5 0 68 0 69 -280 0 c-236 0 -280 -2
-280 -14 0 -8 6 -21 14 -28 7 -8 15 -42 18 -77 l4 -63 -45 7 c-78 11 -76 10
-96 95 l-18 80 -149 0 -148 0 0 -340z m4222 286 c6 4 17 -1 25 -11 7 -11 13
-14 13 -7 0 8 15 11 42 9 35 -2 43 -6 49 -27 4 -16 7 -19 8 -7 1 9 6 17 11 17
6 0 10 -45 10 -114 l0 -114 -40 -16 c-63 -25 -93 -13 -132 51 -18 31 -40 63
-49 73 -20 21 -14 120 7 133 8 4 14 18 14 30 l0 21 16 -22 c8 -12 20 -19 26
-16z m-3522 5 c0 -13 85 -32 107 -24 10 4 21 11 25 17 4 6 8 1 8 -11 0 -14 -6
-23 -15 -23 -8 0 -15 -5 -15 -11 0 -11 37 -3 56 12 7 6 11 -1 11 -21 0 -21 -5
-30 -17 -30 -9 0 -20 -4 -25 -8 -6 -5 -30 -15 -55 -22 -25 -8 -47 -17 -50 -20
-21 -22 -47 -27 -67 -11 -18 15 -20 25 -15 67 3 27 12 59 21 71 17 23 31 30
31 14z m485 -156 c22 -10 33 -19 25 -21 -8 -1 -49 -7 -90 -14 -118 -18 -120
-19 -120 -38 0 -20 72 -102 89 -102 18 0 12 -17 -8 -23 -10 -2 -25 -17 -32
-33 -18 -38 -41 -41 -81 -11 -40 29 -66 39 -73 27 -9 -15 5 -36 26 -37 11 -1
28 -12 38 -24 12 -16 30 -23 63 -24 25 -2 49 0 54 3 17 12 34 51 34 76 0 24 2
25 64 23 50 -2 68 2 84 16 26 24 32 61 16 92 -14 27 -4 34 15 11 7 -8 21 -12
31 -9 11 3 20 1 21 -3 3 -34 8 -54 24 -92 25 -61 17 -188 -16 -257 -21 -44
-27 -50 -51 -47 -19 2 -28 -2 -28 -11 0 -8 -9 -17 -20 -20 -11 -3 -17 -1 -14
4 3 6 -11 1 -32 -10 -46 -25 -74 -27 -74 -6 0 8 -6 15 -12 16 -10 0 -10 2 0 6
6 2 12 11 12 19 0 9 5 12 11 8 7 -4 10 -1 7 7 -2 7 6 25 19 39 28 30 29 40 3
47 -11 3 -17 10 -14 17 3 6 -3 1 -13 -10 -17 -20 -26 -21 -147 -19 -90 2 -131
6 -136 15 -4 7 -14 10 -22 7 -11 -4 -14 2 -13 23 2 39 -22 43 -84 14 -50 -22
-59 -33 -44 -48 4 -4 8 -15 8 -24 0 -12 7 -16 26 -14 17 1 34 -7 54 -28 16
-16 34 -30 41 -30 6 0 17 -7 24 -15 10 -12 10 -15 -4 -15 -9 0 -16 -5 -16 -11
0 -7 -12 -9 -32 -5 -18 3 -38 7 -45 8 -7 1 -10 5 -7 9 2 4 -5 10 -16 14 -11 3
-23 17 -26 30 -3 13 -15 25 -25 28 -18 5 -19 2 -14 -24 6 -25 4 -29 -14 -29
-23 0 -35 23 -78 145 -20 58 -23 81 -18 132 6 58 24 92 33 65 7 -21 19 -13 58
39 48 62 98 93 195 119 97 26 283 24 344 -5z m37 -101 c11 -22 10 -28 -7 -40
-10 -8 -29 -14 -41 -14 -21 0 -22 2 -11 33 20 53 41 61 59 21z m723 -14 c4 -6
11 -8 16 -4 5 3 22 0 38 -7 28 -12 28 -14 15 -46 -9 -20 -10 -33 -4 -33 5 0
10 -7 10 -15 0 -12 13 -15 59 -15 80 0 118 9 124 29 4 15 33 19 253 29 137 7
284 15 327 18 65 5 77 4 77 -9 0 -26 17 -29 107 -22 69 6 86 11 90 25 5 19 48
30 114 30 l37 0 6 -267 c3 -148 9 -577 12 -955 l6 -688 -732 0 -733 0 7 88
c14 193 62 1114 72 1392 3 102 10 205 14 230 9 49 6 60 -12 42 -15 -15 -45
-16 -53 -2 -10 16 14 40 38 37 18 -2 23 4 25 31 2 18 -2 40 -8 47 -6 8 -9 24
-5 35 5 17 13 21 31 17 13 -2 29 2 35 9 14 17 25 18 34 4z m3600 -113 c-11
-26 -10 -33 5 -49 16 -17 27 -19 91 -13 49 5 78 13 86 23 10 13 56 18 240 28
331 19 413 18 413 -2 0 -15 9 -16 61 -10 34 3 75 6 91 6 21 0 31 6 35 20 5 18
14 20 78 20 l72 0 6 -292 c4 -161 7 -575 7 -920 l0 -628 -721 0 -721 0 6 98
c4 53 11 151 16 217 6 66 17 242 25 390 9 149 20 335 25 415 6 80 14 239 20
354 7 147 14 212 23 218 18 11 -6 10 -37 -2 -26 -10 -36 -43 -16 -55 13 -8 13
-45 0 -45 -14 0 -27 60 -20 100 4 29 10 36 35 40 26 5 30 9 27 35 -8 91 -8 90
18 89 13 -1 30 4 36 11 10 9 23 9 62 -3 l50 -15 -13 -30z m-1474 -33 c5 -15 8
-28 7 -29 -5 -4 -141 -45 -150 -45 -4 0 -8 7 -8 15 0 8 -4 15 -10 15 -5 0 -10
5 -10 11 0 7 18 8 55 4 38 -5 55 -4 55 4 0 6 -6 11 -12 11 -7 0 1 9 17 20 39
26 44 25 56 -6z m530 -68 l-20 -21 87 4 c100 4 174 -10 254 -49 94 -46 163
-104 216 -183 24 -37 27 -38 40 -20 14 17 14 17 7 -2 -5 -11 -10 -35 -13 -53
-3 -26 -8 -32 -21 -26 -26 11 -117 17 -155 10 -58 -11 -67 -26 -49 -88 31
-113 32 -119 16 -202 -22 -116 -47 -128 -82 -38 -12 31 -35 84 -52 117 -33 67
-36 85 -14 85 8 0 15 5 15 10 0 6 8 13 18 17 28 10 72 65 72 89 0 15 -16 34
-47 58 -27 19 -62 47 -80 62 -60 48 -163 50 -163 2 0 -18 -5 -19 -42 -14 -24
3 -83 10 -133 15 -110 13 -115 15 -115 44 0 13 -3 27 -7 30 -6 7 -15 -12 -50
-109 -13 -37 -21 -45 -79 -69 -36 -15 -67 -25 -71 -22 -14 15 96 275 135 320
9 10 29 17 51 17 20 0 59 9 88 20 36 13 66 18 95 14 24 -2 57 -1 73 4 41 12
51 4 26 -22z m549 -26 c0 -5 -2 -10 -4 -10 -3 0 -8 5 -11 10 -3 6 -1 10 4 10
6 0 11 -4 11 -10z m-4265 -70 c15 -7 10 -9 -22 -9 -24 -1 -43 4 -43 9 0 12 37
12 65 0z m2432 -42 c-3 -8 -6 -5 -6 6 -1 11 2 17 5 13 3 -3 4 -12 1 -19z m-7
-30 c0 -7 -4 -19 -9 -27 -6 -9 -8 -5 -8 13 0 14 3 26 8 26 5 0 9 -6 9 -12z
m1133 -78 c13 0 17 -3 11 -8 -6 -4 -14 -17 -18 -29 -9 -27 -64 -49 -72 -29 -9
22 25 79 42 72 9 -3 25 -6 37 -6z m221 -55 c-4 -8 -10 -12 -15 -9 -11 6 -2 24
11 24 5 0 7 -7 4 -15z m73 -40 c-4 -10 -18 -15 -39 -14 -28 2 -29 2 -8 6 14 3
29 12 33 20 11 18 22 9 14 -12z m-4611 -42 c-11 -11 -19 6 -11 24 8 17 8 17
12 0 3 -10 2 -21 -1 -24z m4537 -28 c20 -8 49 -15 65 -15 15 0 37 -6 48 -14
17 -13 13 -14 -46 -14 -68 0 -110 17 -110 43 0 18 -1 18 43 0z m447 -19 c0 -7
-7 -19 -15 -26 -12 -10 -15 -9 -15 7 0 11 3 23 7 26 11 12 23 8 23 -7z m50
-76 c-6 -22 -15 -38 -19 -36 -5 3 -1 32 8 63 10 37 17 50 19 36 2 -12 -2 -40
-8 -63z m-40 -39 c0 -21 -44 -32 -76 -20 -18 7 -18 8 1 9 11 0 31 7 45 15 32
18 30 18 30 -4z m-454 -29 c-4 -3 -14 2 -24 12 -16 18 -16 18 6 6 13 -6 21
-14 18 -18z m394 -479 c-9 -14 -10 -10 -6 22 3 22 7 56 8 75 1 19 3 10 5 -22
2 -32 -1 -66 -7 -75z m-3514 -31 c-8 -16 -17 -50 -21 -77 -5 -43 -4 -46 10
-35 14 12 15 10 9 -16 -8 -35 -14 -43 -14 -20 0 9 -4 15 -9 12 -5 -3 -7 -24
-4 -46 4 -26 2 -40 -6 -40 -25 0 -10 152 20 212 5 10 9 31 9 47 0 16 3 38 8
48 5 13 8 9 10 -19 2 -20 -4 -50 -12 -66z m3489 -128 c-3 -18 -13 -38 -23 -44
-16 -9 -16 -11 2 -25 20 -15 17 -18 -19 -17 -17 1 -17 0 -2 -4 19 -6 22 -19 7
-29 -5 -3 -10 -18 -11 -33 l-1 -27 -8 25 -8 25 -1 -27 c-1 -31 -17 -38 -24
-10 -3 9 -5 -3 -6 -28 -2 -55 -21 -35 -21 22 0 53 12 79 64 133 36 37 46 55
47 84 1 25 3 29 6 12 3 -13 2 -39 -2 -57z m-4908 -136 c13 -16 22 -78 11 -78
-4 0 -10 11 -14 25 -8 31 -26 28 -34 -6 -4 -15 -14 -25 -29 -27 -21 -3 -23 -1
-18 21 6 23 5 24 -43 21 -59 -3 -71 20 -16 30 19 4 36 13 39 21 11 28 80 23
104 -7z m3403 -10 c0 -33 -15 -52 -31 -42 -8 5 -22 9 -31 9 -29 0 -21 20 9 23
15 2 32 10 36 18 11 20 17 17 17 -8z m-2026 -22 c-3 -15 -8 -25 -11 -23 -2 3
-1 17 3 31 3 15 8 25 11 23 2 -3 1 -17 -3 -31z m-1396 -67 c-2 -6 -8 -10 -13
-10 -5 0 -11 4 -13 10 -2 6 4 11 13 11 9 0 15 -5 13 -11z m42 -33 c0 -8 -7
-17 -16 -20 -25 -10 -30 2 -8 19 24 18 24 18 24 1z m1584 -210 c-5 -13 -21
-16 -88 -16 -56 0 -76 3 -66 10 8 5 45 10 83 10 44 0 67 4 67 12 0 6 2 9 5 6
3 -3 3 -13 -1 -22z m3496 2 c0 -9 4 -8 10 2 8 12 10 12 10 -5 0 -18 -6 -20
-52 -18 -29 1 -73 2 -97 2 -65 1 -43 12 41 21 40 4 76 8 81 9 4 0 7 -5 7 -11z
m-3674 -32 c20 -3 94 -89 94 -108 0 -10 7 -21 15 -24 8 -4 12 -11 9 -16 -4 -6
2 -8 15 -3 11 3 21 2 21 -3 0 -5 9 -12 20 -15 28 -7 26 -45 -2 -49 -19 -2 -23
-9 -21 -34 2 -25 -2 -33 -18 -37 -18 -5 -20 -10 -14 -51 8 -50 -19 -125 -44
-126 -17 0 -51 -29 -51 -43 0 -5 8 -16 18 -23 16 -13 16 -13 -1 -14 -17 0 -17
-1 -3 -16 24 -23 19 -27 -8 -7 -13 10 -21 24 -19 30 3 7 0 13 -6 13 -6 0 -11
-5 -11 -12 0 -6 -11 2 -24 17 -24 28 -28 42 -42 138 -6 48 -24 66 -24 24 0
-13 -9 -34 -20 -47 l-20 -23 -75 36 c-85 42 -198 73 -300 82 l-70 7 3 141 c2
78 5 148 7 154 3 10 66 13 247 16 212 3 273 1 324 -7z m3526 -23 c68 -60 70
-62 66 -80 -4 -21 41 -73 62 -73 19 0 40 -19 40 -37 0 -7 -9 -13 -20 -13 -39
0 -86 -159 -47 -160 6 0 4 -5 -5 -11 -10 -5 -18 -19 -18 -29 0 -22 -10 -26
-27 -9 -7 7 -19 9 -28 5 -20 -7 -54 -82 -55 -118 0 -15 -4 -29 -9 -33 -5 -3
-9 8 -9 23 1 16 -2 34 -6 40 -8 13 -61 -1 -96 -26 -49 -36 -120 -63 -177 -69
-71 -7 -93 -17 -93 -44 0 -29 57 -87 109 -110 41 -18 52 -19 99 -9 30 7 56 10
58 7 11 -10 -52 -96 -75 -102 -31 -8 -111 4 -138 21 -12 8 -45 14 -73 14 -27
0 -50 5 -50 10 0 6 5 10 11 10 5 0 7 5 3 11 -4 7 -9 8 -13 1 -10 -16 -135 12
-162 37 -20 18 -22 25 -11 41 9 15 9 22 -4 35 -9 8 -21 12 -27 9 -7 -3 0 4 15
17 16 13 31 38 34 55 5 28 3 32 -26 44 -48 20 -66 4 -62 -56 2 -44 -7 -63 -30
-64 -15 0 -29 72 -23 113 11 62 28 98 66 135 72 71 185 112 332 119 59 3 104
10 100 14 -19 19 -145 51 -226 56 l-88 6 3 121 3 121 235 5 c129 3 254 6 277
8 37 2 49 -3 85 -35z m-4727 12 l-40 -14 38 6 c27 4 37 2 37 -8 0 -10 3 -10
11 -2 21 21 46 -17 52 -79 l6 -58 -42 1 c-69 1 -79 9 -99 80 -10 35 -18 69
-18 74 0 6 21 11 48 12 l47 2 -40 -14z m3140 -325 l0 -335 -59 -5 -59 -5 37
-45 c20 -25 41 -52 48 -60 6 -8 20 -25 31 -37 l20 -22 -38 -83 c-69 -151 -99
-356 -75 -506 10 -59 9 -64 -14 -89 -29 -31 -27 -36 25 -69 24 -15 39 -32 39
-44 0 -25 -11 -25 -44 1 -22 17 -27 18 -32 6 -10 -28 -12 -51 -13 -146 -1 -93
-1 -94 -21 -76 -19 18 -20 17 -20 -7 0 -14 -6 -31 -13 -37 -11 -9 -15 44 -20
312 -4 177 -7 379 -7 450 l0 127 45 0 c43 0 45 1 45 30 0 28 -2 30 -35 27 -20
-1 -35 -7 -35 -14 0 -7 -4 -13 -9 -13 -5 0 -9 39 -10 88 -1 85 0 86 13 49 14
-39 40 -66 64 -67 17 0 15 37 -3 44 -8 3 -19 16 -24 30 -11 28 -3 69 11 60 6
-4 8 1 4 13 -3 11 1 40 9 64 10 27 15 69 14 109 -2 36 -2 183 -1 328 l2 263
63 -3 62 -3 0 -335z m351 327 c4 -4 -4 -7 -19 -7 -14 0 -29 5 -32 10 -7 12 39
9 51 -3z m48 -8 c-16 -7 -15 -8 7 -8 36 -1 46 -17 51 -83 l5 -58 -38 0 c-69 0
-85 12 -101 79 l-16 61 30 0 c16 0 36 7 45 15 8 8 20 12 26 8 7 -4 4 -9 -9
-14z m-3167 -39 c7 0 13 6 13 13 0 8 2 9 8 1 4 -7 27 -14 51 -18 25 -3 48 -12
53 -18 6 -10 8 -10 8 0 0 6 5 12 10 12 6 0 10 -46 10 -118 l0 -118 -33 -12
c-18 -7 -49 -12 -69 -12 -28 0 -37 5 -49 28 -15 30 -46 77 -69 107 -20 25 -16
135 5 135 8 0 17 10 21 23 l7 22 10 -22 c6 -13 16 -23 24 -23z m3489 22 c-3
-5 26 -15 64 -22 39 -7 70 -18 70 -23 0 -5 7 -4 15 3 13 11 15 1 15 -83 l0
-95 -62 -21 c-34 -12 -69 -21 -77 -21 -9 0 -28 22 -43 49 -15 26 -34 53 -41
60 -18 15 -10 108 12 138 15 20 59 34 47 15z m-2426 -202 c0 -5 -7 -10 -15
-10 -8 0 -15 5 -15 10 0 6 7 10 15 10 8 0 15 -4 15 -10z m3490 -5 c0 -8 -2
-15 -4 -15 -2 0 -6 7 -10 15 -3 8 -1 15 4 15 6 0 10 -7 10 -15z m-4165 -220
c100 -26 165 -63 239 -138 60 -60 71 -68 87 -58 25 15 29 14 29 -9 0 -11 -6
-20 -14 -20 -11 0 -13 -18 -13 -77 1 -51 -5 -98 -17 -136 -18 -54 -20 -56 -36
-42 -10 9 -21 12 -24 7 -5 -8 -23 -9 -124 -4 -21 1 -35 8 -39 20 -4 9 -14 22
-22 29 -13 10 -6 11 36 6 55 -6 123 16 123 40 0 7 9 23 20 37 24 30 25 52 5
90 l-16 30 -124 0 c-133 0 -155 -8 -155 -54 0 -28 19 -86 34 -105 16 -20 8
-52 -19 -81 -13 -14 -31 -44 -41 -67 -10 -23 -28 -46 -40 -52 -19 -8 -25 -6
-38 14 -9 13 -16 35 -16 49 0 14 -4 27 -9 31 -5 3 -12 18 -16 35 -4 20 -11 27
-21 23 -8 -3 -14 1 -14 11 0 20 -2 20 -45 -4 -21 -12 -45 -18 -58 -15 -35 9
-68 -41 -58 -86 4 -19 5 -43 1 -53 -5 -16 -7 -16 -19 -2 -11 14 -11 16 4 16
10 0 15 3 11 7 -4 4 -15 8 -24 8 -24 0 -60 59 -84 138 -17 58 -19 83 -14 160
9 119 17 162 26 147 6 -9 9 -9 15 0 4 7 2 16 -4 20 -15 8 -5 54 15 70 16 14
34 5 34 -17 0 -18 16 -16 115 21 84 31 215 35 310 11z m-718 -11 c-3 -3 -12
-4 -19 -1 -8 3 -5 6 6 6 11 1 17 -2 13 -5z m4707 -103 c-5 -22 -10 -29 -17
-22 -7 7 -7 19 2 37 15 34 23 26 15 -15z m-2 -89 c12 -2 18 5 21 25 3 23 4 21
6 -10 1 -42 20 -86 46 -107 46 -38 102 -150 76 -150 -6 0 -39 20 -73 45 -34
25 -70 45 -80 45 -10 0 -18 4 -18 8 0 5 -15 16 -34 25 -32 15 -34 19 -26 46 5
17 4 33 -2 39 -6 6 -4 20 6 40 9 17 16 39 16 48 0 11 8 5 23 -17 12 -19 30
-35 39 -37z m-238 -9 c-9 -35 -23 -45 -54 -37 -77 18 -55 60 33 63 25 1 27 -1
21 -26z m-1564 -69 c0 -24 -4 -44 -10 -44 -5 0 -10 23 -10 51 0 31 4 48 10 44
6 -3 10 -26 10 -51z m-2000 -30 c0 -29 -21 -54 -45 -54 -33 0 -39 15 -19 45
18 28 64 35 64 9z m-525 -244 c3 -5 1 -10 -4 -10 -6 0 -11 5 -11 10 0 6 2 10
4 10 3 0 8 -4 11 -10z m4255 -534 c11 -11 13 -79 3 -90 -4 -3 -8 -13 -9 -22
-2 -12 1 -13 12 -3 11 9 14 7 14 -11 0 -21 3 -22 44 -16 51 8 56 3 64 -58 9
-72 7 -119 -11 -195 -19 -87 -30 -102 -53 -79 -14 13 -14 22 -4 52 6 19 8 41
4 47 -9 16 -24 -9 -24 -43 0 -15 -8 -43 -17 -63 l-17 -35 -13 38 c-9 26 -10
47 -3 72 12 44 13 70 1 70 -8 0 -25 -69 -38 -158 -5 -33 -41 -68 -55 -54 -4 4
-11 29 -14 55 -6 39 -2 55 21 102 30 59 26 86 -6 45 -23 -30 -38 -78 -46 -147
-6 -57 -28 -80 -28 -29 0 23 -4 30 -16 28 -12 -2 -19 8 -23 31 -8 41 34 120
105 201 41 47 47 60 57 127 19 129 24 173 27 224 5 96 9 99 12 10 2 -49 8 -94
13 -99z m-3489 57 c-10 -17 -10 -16 -11 3 0 23 13 41 18 25 2 -6 -1 -18 -7
-28z m-16 -63 c-5 -23 -3 -30 9 -30 9 0 16 -4 16 -10 0 -5 -9 -10 -20 -10 -21
0 -28 -28 -11 -45 19 -20 29 -129 18 -188 -11 -57 -7 -97 23 -246 8 -38 8 -57
1 -64 -23 -23 -40 18 -56 126 -15 113 -35 173 -34 107 0 -19 4 -75 8 -125 9
-102 7 -117 -22 -113 -20 3 -47 67 -47 116 0 12 -5 22 -11 22 -8 0 -9 -13 -5
-40 4 -25 2 -40 -4 -40 -17 0 -12 77 6 95 14 13 15 28 10 78 -7 67 -22 95 -30
56 -3 -13 -8 -58 -11 -99 -3 -41 -13 -99 -21 -128 -12 -42 -19 -52 -36 -52
-19 0 -20 4 -15 45 14 99 20 235 10 235 -5 0 -17 -25 -27 -55 -28 -89 -55
-143 -83 -164 -14 -12 -30 -21 -34 -21 -14 0 -10 36 5 49 8 7 17 28 21 49 3
20 9 47 12 60 4 18 2 21 -13 15 -9 -3 -15 -2 -12 3 2 5 12 25 21 45 35 76 177
246 222 265 17 6 42 10 56 7 24 -4 27 -1 34 34 7 40 13 53 21 53 3 0 3 -13 -1
-30z m35 9 c0 -5 -4 -9 -10 -9 -5 0 -10 7 -10 16 0 8 5 12 10 9 6 -3 10 -10
10 -16z m-916 -23 c67 -28 253 -192 304 -268 22 -32 37 -45 47 -41 11 4 13 1
9 -11 -8 -21 42 -104 71 -118 45 -20 38 -56 -8 -44 -20 5 -101 72 -95 78 5 6
-76 158 -84 158 -4 0 -8 -3 -8 -7 0 -13 64 -188 70 -193 8 -7 40 -93 40 -108
0 -21 -25 -13 -52 15 -22 24 -77 149 -105 237 -5 17 -15 32 -21 34 -15 5 -15
-31 -3 -113 6 -33 13 -95 17 -137 5 -65 4 -78 -8 -78 -22 0 -36 39 -58 166
-11 64 -20 119 -20 121 0 3 -6 3 -12 0 -10 -3 -13 -41 -13 -145 0 -204 -23
-194 -47 21 -10 96 -14 110 -41 140 -45 49 -70 106 -78 172 -4 33 -10 72 -14
86 -6 23 -3 28 22 37 39 14 49 14 87 -2z m413 -92 c-3 -3 -12 -4 -19 -1 -8 3
-5 6 6 6 11 1 17 -2 13 -5z m3 -33 c0 -6 -9 -9 -19 -8 -11 0 -17 5 -15 9 7 11
34 10 34 -1z m-20 -41 c-8 -6 -24 -10 -35 -9 -15 0 -13 3 10 13 32 14 49 11
25 -4z m10 -30 c0 -5 -9 -10 -21 -10 -11 0 -17 5 -14 10 3 6 13 10 21 10 8 0
14 -4 14 -10z m-10 -38 c0 -5 -7 -9 -15 -9 -8 0 -12 4 -9 9 3 4 9 8 15 8 5 0
9 -4 9 -8z m-1060 -103 c0 -5 -7 -9 -15 -9 -15 0 -20 12 -9 23 8 8 24 -1 24
-14z"/>
<path d="M968 4363 c7 -3 16 -2 19 1 4 3 -2 6 -13 5 -11 0 -14 -3 -6 -6z"/>
<path d="M829 4189 c-35 -37 -32 -59 13 -101 23 -22 40 -28 72 -28 38 0 50 7
104 56 86 77 83 89 -20 97 -132 11 -137 10 -169 -24z m62 -37 c-6 -10 -7 -28
-4 -40 4 -16 1 -22 -11 -22 -9 0 -19 7 -23 16 -8 21 13 64 32 64 12 0 13 -4 6
-18z m56 -47 c-4 -8 -13 -15 -22 -15 -13 0 -12 3 3 18 19 21 27 20 19 -3z"/>
<path d="M2104 4092 c4 -7 2 -21 -5 -30 -12 -15 -11 -15 6 0 16 15 17 20 6 30
-11 11 -13 10 -7 0z"/>
<path d="M5630 4033 c0 -6 -3 -20 -6 -30 -7 -17 -6 -17 12 -1 14 14 16 21 6
30 -8 8 -12 9 -12 1z"/>
<path d="M5560 3979 c0 -5 5 -7 10 -4 6 3 10 8 10 11 0 2 -4 4 -10 4 -5 0 -10
-5 -10 -11z"/>
<path d="M4610 3915 c0 -19 17 -19 50 0 l25 14 -37 1 c-27 0 -38 -4 -38 -15z"/>
<path d="M5095 1890 c3 -5 10 -10 16 -10 5 0 9 5 9 10 0 6 -7 10 -16 10 -8 0
-12 -4 -9 -10z"/>
<path d="M5265 1830 c-3 -5 -1 -10 4 -10 6 0 11 5 11 10 0 6 -2 10 -4 10 -3 0
-8 -4 -11 -10z"/>
<path d="M3472 1430 c0 -14 2 -19 5 -12 2 6 2 18 0 25 -3 6 -5 1 -5 -13z"/>
<path d="M913 1663 c-3 -10 -14 -26 -25 -36 -21 -21 -23 -56 -4 -82 12 -17 13
-17 20 8 9 37 48 62 75 47 30 -15 41 -43 32 -76 -9 -35 -49 -44 -87 -19 -21
14 -24 14 -24 0 0 -8 5 -15 10 -15 6 0 10 -6 10 -14 0 -19 81 -40 121 -31 30
7 51 20 107 66 18 15 11 50 -12 63 -11 6 -47 32 -80 59 -48 37 -68 47 -98 47
-28 0 -40 -5 -45 -17z"/>
<path d="M947 1573 c-13 -12 -7 -54 8 -60 9 -3 24 2 35 12 15 13 17 22 9 36
-10 19 -39 25 -52 12z"/>
<path d="M5142 640 c0 -19 2 -27 5 -17 2 9 2 25 0 35 -3 9 -5 1 -5 -18z"/>
<path d="M5124 544 c3 -9 6 -21 6 -27 0 -8 3 -8 10 -1 12 12 3 44 -12 44 -6 0
-7 -7 -4 -16z"/>
<path d="M450 4481 c0 -5 11 -8 25 -8 14 0 25 3 25 8 0 5 -11 9 -25 9 -14 0
-25 -4 -25 -9z"/>
<path d="M510 4480 c0 -5 5 -10 10 -10 6 0 10 5 10 10 0 6 -4 10 -10 10 -5 0
-10 -4 -10 -10z"/>
<path d="M5170 4420 c0 -6 7 -10 15 -10 8 0 15 -7 15 -15 0 -8 5 -15 10 -15
20 0 9 27 -15 38 -15 7 -25 8 -25 2z"/>
<path d="M5208 4008 c9 -9 15 -9 24 0 9 9 7 12 -12 12 -19 0 -21 -3 -12 -12z"/>
<path d="M333 3932 c-21 -3 -22 -7 -16 -50 3 -26 7 -49 9 -51 8 -9 34 23 34
41 0 11 4 28 10 38 11 21 -1 28 -37 22z"/>
<path d="M3481 3674 c0 -11 3 -14 6 -6 3 7 2 16 -1 19 -3 4 -6 -2 -5 -13z"/>
<path d="M3443 3523 c-17 -3 -23 -11 -23 -29 0 -23 3 -25 38 -22 32 3 37 7 40
31 3 28 -2 30 -55 20z"/>
<path d="M6942 3519 c-37 -14 -24 -43 21 -47 35 -3 37 -2 37 27 0 33 -14 38
-58 20z"/>
<path d="M27 2965 c-34 -30 -34 -46 2 -68 34 -20 41 -15 41 32 0 55 -11 63
-43 36z"/>
<path d="M3523 2964 c-13 -14 -23 -30 -23 -37 0 -15 54 -49 64 -40 8 8 8 66 0
87 -8 21 -14 19 -41 -10z"/>
<path d="M4430 263 c0 -5 7 -30 15 -57 19 -63 19 -107 0 -153 -18 -42 -8 -55
35 -51 24 3 25 5 22 63 -3 59 -49 205 -64 205 -5 0 -8 -3 -8 -7z"/>
<path d="M1848 13 c7 -3 16 -2 19 1 4 3 -2 6 -13 5 -11 0 -14 -3 -6 -6z"/>
</g>
</svg>
